<svg width="29" height="19" viewBox="0 0 29 19" fill="none" xmlns="http://www.w3.org/2000/svg">
<path d="M13.9902 11.2018L23.2615 0L28.405 9.7079L23.8225 17.8412L21.4608 18.3597L13.9902 11.2018Z" fill="#29ABE2"/>
<path d="M21.4705 18.3673L11.9975 17.0816L7.66797 9.14027L14.2913 11.2018L21.4705 18.3673Z" fill="#2386C9"/>
<path d="M14.3061 11.2003L7.36719 9.14028L23.2618 0L14.3061 11.2003Z" fill="#00FFFF"/>
<path d="M14.5087 5.0164L10.2575 10.0236L14.0192 13.9178L10.9895 18.1362L1.9668 12.8456L6.04098 0.222748L10.4797 0.990071L14.5087 5.0164Z" fill="#842084"/>
<path d="M1.96631 12.8456L0 3.87579L6.0405 0.222748L1.96631 12.8456Z" fill="#FF00FF"/>
<path d="M14.0187 13.9178L15.3102 17.5271L11.7549 17.0501L14.0187 13.9178Z" fill="#5E67B5"/>
<path d="M6.04098 0.222748L10.9895 18.1362L1.9668 12.8456L6.04098 0.222748Z" fill="#C321CC"/>
</svg>
