<svg width="89" height="30" viewBox="0 0 89 30" fill="none" xmlns="http://www.w3.org/2000/svg">
<g clip-path="url(#clip0)">
<path d="M64.7754 18.2964L80.2274 9.15527e-05L88.8 15.8563L81.1625 29.1407L77.2264 29.9875L64.7754 18.2964Z" fill="#29ABE2"/>
<path d="M77.2427 30.0001L61.4543 27.9L54.2385 14.9292L65.2775 18.2964L77.2427 30.0001Z" fill="#2386C9"/>
<path d="M65.3013 18.2939L53.7365 14.9292L80.2275 9.15527e-05L65.3013 18.2939Z" fill="#00FFFF"/>
<path d="M65.6389 8.19355L58.5537 16.372L64.8231 22.7325L59.7737 29.6225L44.7358 20.9812L51.5261 0.363922L58.9239 1.61722L65.6389 8.19355Z" fill="#842084"/>
<path d="M44.7358 20.9812L41.4586 6.33055L51.5261 0.363922L44.7358 20.9812Z" fill="#FF00FF"/>
<path d="M64.8231 22.7325L66.9757 28.6276L61.0502 27.8485L64.8231 22.7325Z" fill="#5E67B5"/>
<path d="M51.5261 0.363922L59.7737 29.6225L44.7358 20.9812L51.5261 0.363922Z" fill="#C321CC"/>
<path d="M72.1405 17.0331C71.4941 16.1085 70.3494 15.4787 69.1758 15.4273C68.6022 15.4022 67.9483 15.4774 67.5341 15.1048C66.8024 14.4487 67.5416 13.5755 68.2734 13.4074C68.9587 13.2506 69.7996 13.3547 70.4724 13.5329C70.9519 13.6609 71.4087 13.8628 71.8217 14.1401C72.1693 14.3734 72.6589 14.2517 72.8547 13.8929L73.7169 12.3172C73.796 12.1717 73.786 11.9923 73.6743 11.8681C72.566 10.6274 70.3845 10.2121 68.8093 10.3212C66.766 10.463 64.2657 11.6724 63.8001 13.7286C63.5679 14.7511 63.9808 15.8576 64.7766 16.5827C65.2222 16.9892 65.7794 17.279 66.3731 17.4446C66.9944 17.619 67.5705 17.5612 68.2006 17.5976C68.7328 17.629 69.1608 18.033 69.1733 18.5436C69.1909 19.2423 68.5721 19.5246 67.9282 19.5547C67.2115 19.5898 66.4836 19.576 65.7907 19.4004C65.3602 19.2913 65.0088 19.1206 64.6837 18.9011C64.3097 18.6489 63.7888 18.7493 63.5716 19.1332C63.229 19.7416 62.8123 20.5032 62.6278 20.8394C62.5951 20.8983 62.6014 20.9698 62.6441 21.0225C63.7147 22.3586 65.9865 22.8053 67.6132 22.6923C69.2097 22.5819 70.6293 21.9785 71.6259 20.9422C72.4078 20.2272 72.8258 19.1997 72.6338 18.1785C72.5547 17.767 72.3827 17.3793 72.1405 17.0331Z" fill="white"/>
<path d="M53.0172 22.3662H45.1324C44.8563 22.3662 44.6316 22.1416 44.6316 21.8656V10.9975C44.6316 10.7215 44.8563 10.4969 45.1324 10.4969H45.4487C46.4252 10.4969 47.8021 11.0087 48.3041 11.8455C48.4033 12.0099 48.4547 12.1981 48.4547 12.39V19.137H51.3805C51.8938 19.137 52.3683 19.4054 52.6319 19.8458L53.5644 21.4002C53.8205 21.8255 53.5142 22.3662 53.0172 22.3662Z" fill="white"/>
<path d="M84.545 10.4517H78.8906H78.1287H74.8189C74.3269 10.4517 74.0219 10.9887 74.2754 11.4115L75.2005 12.9533C75.4616 13.3899 75.9335 13.6558 76.4418 13.6558H77.633L78.0986 21.7615C78.0986 22.0575 78.3383 22.2959 78.6333 22.2959H80.4043C80.6993 22.2959 80.939 22.0575 80.939 21.7627L81.4247 13.6558H82.9209C83.4292 13.6558 83.9011 13.3886 84.1622 12.9533L85.0872 11.4115C85.342 10.9887 85.0383 10.4517 84.545 10.4517Z" fill="white"/>
<path d="M63.421 10.4818H60.789L57.8306 14.7912C57.6399 15.1224 57.1617 15.1224 56.9696 14.7912L54.0113 10.4818H51.3792C50.9964 10.4818 50.7579 10.8958 50.9487 11.227L55.6856 19.428L56.1538 21.6385C56.1538 22.0199 56.4638 22.3298 56.8454 22.3298H57.9524C58.334 22.3298 58.644 22.0199 58.644 21.6385L59.1121 19.428L63.849 11.227C64.0423 10.8958 63.8026 10.4818 63.421 10.4818Z" fill="white"/>
<path d="M11.6415 18.2362C11.6415 18.2362 6.50298 18.1396 6.49545 18.1396C5.52397 18.1333 4.74202 17.3404 4.74829 16.3694C4.75457 15.3984 5.54782 14.6168 6.5193 14.6231C6.52683 14.6231 11.7093 14.667 11.7106 14.667C11.9428 14.672 12.2051 14.4424 12.1072 14.2003C11.7244 13.2582 11.1847 12.4164 10.4253 11.7326C9.6923 11.0715 8.80366 10.5897 7.84849 10.3376C7.34142 10.2033 6.81802 10.1356 6.29463 10.1318C2.84173 10.1067 0.0239389 12.8856 9.12463e-05 16.3368C-0.0237565 19.7881 2.75638 22.6045 6.20928 22.6284C8.28026 22.6422 10.2571 21.5996 11.4206 19.8884C11.6327 19.5761 11.8147 19.2449 11.9716 18.9024C12.1022 18.6163 12.0193 18.2437 11.6415 18.2362Z" fill="white"/>
<path d="M37.6844 10.7516C37.4873 10.4091 36.9928 10.4091 36.7945 10.7516L30.5702 21.5269C30.3732 21.8694 30.6192 22.2972 31.0146 22.2972H34.2039L36.7932 17.8423C36.9903 17.4998 37.4848 17.4998 37.6831 17.8423L40.2725 22.2972H43.4618C43.8572 22.2972 44.1044 21.8694 43.9061 21.5269L37.6844 10.7516Z" fill="white"/>
<path d="M32.5836 10.5132H26.9292H26.1673H22.8563C22.3643 10.5132 22.0593 11.0502 22.3128 11.4729L23.2378 13.0148C23.4989 13.4514 23.9708 13.7173 24.4792 13.7173H25.6703L26.136 21.823C26.136 22.119 26.3619 22.3574 26.6581 22.3574H28.4417C28.7366 22.3574 28.9763 22.119 28.9763 21.8242L29.4621 13.7173H30.9582C31.4665 13.7173 31.9385 13.4501 32.1996 13.0148L33.1246 11.4729C33.3794 11.0502 33.0756 10.5132 32.5836 10.5132Z" fill="white"/>
<path d="M11.2825 21.5244L17.5206 10.7252C17.7189 10.3827 18.2134 10.3827 18.4117 10.7252L24.6498 21.5244C24.8481 21.8669 24.6009 22.2959 24.2042 22.2959H21.0086L18.413 17.831C18.2147 17.4885 17.7202 17.4885 17.5218 17.831L14.9262 22.2959H11.7281C11.3315 22.2959 11.0842 21.8669 11.2825 21.5244Z" fill="white"/>
<g opacity="0.6">
<path opacity="0.6" d="M6.21429 22.661C8.28527 22.6748 10.2621 21.6323 11.4256 19.9211C11.6377 19.6087 11.8197 19.2775 11.9766 18.935C12.1084 18.6489 12.0256 18.2763 11.6478 18.2688C11.6478 18.2688 6.50924 18.1722 6.50171 18.1722C5.53023 18.1659 4.74828 17.3731 4.75456 16.402C4.75707 16.101 4.83489 15.8174 4.97044 15.5703C3.06137 15.9667 1.41211 16.4698 0.0327148 16.9829C0.317632 20.1481 2.96849 22.6384 6.21429 22.661Z" fill="url(#paint0_linear)"/>
<path opacity="0.6" d="M30.5754 21.5583C30.3783 21.9007 30.6243 22.3286 31.0197 22.3286H34.209L36.6264 18.1685C35.3725 18.0004 34.1349 17.7946 32.8811 17.565L30.5754 21.5583Z" fill="url(#paint1_linear)"/>
<path opacity="0.6" d="M40.2787 22.3285H43.468C43.8634 22.3285 44.1107 21.9007 43.9124 21.5582L42.2091 18.6101C40.7331 18.5812 39.3273 18.4808 37.9542 18.3303L40.2787 22.3285Z" fill="url(#paint2_linear)"/>
<path opacity="0.6" d="M26.1409 21.8543C26.1409 22.1504 26.3932 22.3888 26.6894 22.3888H28.4466C28.7415 22.3888 28.9813 22.1504 28.9813 21.8556L29.2775 16.9202C28.1629 16.7007 27.017 16.4748 25.8196 16.2515L26.1409 21.8543Z" fill="url(#paint3_linear)"/>
<path opacity="0.6" d="M15.1785 14.8188L11.2863 21.5557C11.088 21.8982 11.3353 22.3273 11.7319 22.3273H14.9275L17.5231 17.8623C17.7214 17.5199 18.216 17.5199 18.4143 17.8623L21.0099 22.3273H24.2055C24.6021 22.3273 24.8494 21.8982 24.6511 21.5557L21.1291 15.4586C20.3535 15.3432 19.5539 15.2316 18.7243 15.1274C17.5005 14.9744 16.3182 14.874 15.1785 14.8188Z" fill="url(#paint4_linear)"/>
</g>
<path opacity="0.6" d="M64.7818 16.584C65.2274 16.9904 65.7847 17.2802 66.3784 17.4458C66.9997 17.6202 67.5758 17.5625 68.2058 17.5989C68.738 17.6303 69.166 18.0342 69.1786 18.5448C69.1961 19.2436 68.5774 19.5259 67.9335 19.556C67.2168 19.5911 66.4888 19.5773 65.796 19.4017C65.3655 19.2925 65.014 19.1219 64.6889 18.9024C64.3149 18.6502 63.794 18.7506 63.5769 19.1345C63.2342 19.7429 62.8175 20.5044 62.633 20.8406C62.6004 20.8996 62.6067 20.9711 62.6493 21.0238C63.72 22.3599 65.9918 22.8065 67.6184 22.6936C69.215 22.5832 70.6345 21.9798 71.6311 20.9435C72.4131 20.2284 72.831 19.2009 72.639 18.1797C72.5612 17.7657 72.388 17.3781 72.1457 17.0318C71.4993 16.1072 70.3546 15.4775 69.1811 15.426C68.6075 15.4009 67.9536 15.4762 67.5394 15.1036C67.5243 15.0898 67.5105 15.076 67.4954 15.0622C66.3507 15.0998 65.1646 15.1914 63.9384 15.3457C64.1153 15.8112 64.4053 16.2402 64.7818 16.584Z" fill="url(#paint5_linear)"/>
<path opacity="0.6" d="M44.6367 21.8656C44.6367 22.1416 44.8614 22.3662 45.1375 22.3662H53.0223C53.5194 22.3662 53.8256 21.8255 53.5696 21.3989L52.637 19.8445C52.3734 19.4054 51.8977 19.1357 51.3856 19.1357H48.4599V18.2851C47.1181 18.4319 45.8492 18.521 44.6367 18.5611V21.8656Z" fill="url(#paint6_linear)"/>
<path opacity="0.6" d="M78.1037 21.7602C78.1037 22.0563 78.3435 22.2947 78.6384 22.2947H80.4094C80.7044 22.2947 80.9441 22.0563 80.9441 21.7615L81.2089 17.343C80.1684 16.9365 79.025 16.5526 77.7849 16.2189L78.1037 21.7602Z" fill="url(#paint7_linear)"/>
<path opacity="0.6" d="M54.4771 17.3254L55.6908 19.4268L56.1589 21.6373C56.1589 22.0187 56.469 22.3285 56.8505 22.3285H57.9576C58.3391 22.3285 58.6492 22.0187 58.6492 21.6373L59.1173 19.4268L61.2222 15.7823C60.4064 15.9404 59.5755 16.1261 58.7282 16.3431C57.2334 16.7245 55.8188 17.0494 54.4771 17.3254Z" fill="url(#paint8_linear)"/>
</g>
<defs>
<linearGradient id="paint0_linear" x1="6.03279" y1="22.6607" x2="6.03279" y2="15.5696" gradientUnits="userSpaceOnUse">
<stop stop-color="white" stop-opacity="0.1"/>
<stop offset="0.2836" stop-color="#FFA2FF" stop-opacity="0.2316"/>
<stop offset="0.5671" stop-color="#FF4BFF" stop-opacity="0.3632"/>
<stop offset="0.7656" stop-color="#FF15FF" stop-opacity="0.4554"/>
<stop offset="0.8616" stop-color="#FF00FF" stop-opacity="0.5"/>
</linearGradient>
<linearGradient id="paint1_linear" x1="33.5671" y1="22.3283" x2="33.5671" y2="17.5648" gradientUnits="userSpaceOnUse">
<stop stop-color="white" stop-opacity="0.1"/>
<stop offset="0.2836" stop-color="#FFA2FF" stop-opacity="0.2316"/>
<stop offset="0.5671" stop-color="#FF4BFF" stop-opacity="0.3632"/>
<stop offset="0.7656" stop-color="#FF15FF" stop-opacity="0.4554"/>
<stop offset="0.8616" stop-color="#FF00FF" stop-opacity="0.5"/>
</linearGradient>
<linearGradient id="paint2_linear" x1="40.9686" y1="22.3283" x2="40.9686" y2="18.3307" gradientUnits="userSpaceOnUse">
<stop stop-color="white" stop-opacity="0.1"/>
<stop offset="0.2836" stop-color="#FFA2FF" stop-opacity="0.2316"/>
<stop offset="0.5671" stop-color="#FF4BFF" stop-opacity="0.3632"/>
<stop offset="0.7656" stop-color="#FF15FF" stop-opacity="0.4554"/>
<stop offset="0.8616" stop-color="#FF00FF" stop-opacity="0.5"/>
</linearGradient>
<linearGradient id="paint3_linear" x1="27.5486" y1="22.3896" x2="27.5486" y2="16.2518" gradientUnits="userSpaceOnUse">
<stop stop-color="white" stop-opacity="0.1"/>
<stop offset="0.2836" stop-color="#FFA2FF" stop-opacity="0.2316"/>
<stop offset="0.5671" stop-color="#FF4BFF" stop-opacity="0.3632"/>
<stop offset="0.7656" stop-color="#FF15FF" stop-opacity="0.4554"/>
<stop offset="0.8616" stop-color="#FF00FF" stop-opacity="0.5"/>
</linearGradient>
<linearGradient id="paint4_linear" x1="17.9707" y1="22.3283" x2="17.9707" y2="14.8194" gradientUnits="userSpaceOnUse">
<stop stop-color="white" stop-opacity="0.1"/>
<stop offset="0.2836" stop-color="#FFA2FF" stop-opacity="0.2316"/>
<stop offset="0.5671" stop-color="#FF4BFF" stop-opacity="0.3632"/>
<stop offset="0.7656" stop-color="#FF15FF" stop-opacity="0.4554"/>
<stop offset="0.8616" stop-color="#FF00FF" stop-opacity="0.5"/>
</linearGradient>
<linearGradient id="paint5_linear" x1="67.6485" y1="22.7123" x2="67.6485" y2="15.0629" gradientUnits="userSpaceOnUse">
<stop stop-color="white" stop-opacity="0.1"/>
<stop offset="0.0904" stop-color="#F2FFFF" stop-opacity="0.1271"/>
<stop offset="0.259" stop-color="#CEFFFF" stop-opacity="0.1777"/>
<stop offset="0.4875" stop-color="#96FFFF" stop-opacity="0.2462"/>
<stop offset="0.7638" stop-color="#48FFFF" stop-opacity="0.3291"/>
<stop offset="1" stop-color="#00FFFF" stop-opacity="0.4"/>
</linearGradient>
<linearGradient id="paint6_linear" x1="49.1497" y1="22.3658" x2="49.1497" y2="18.2854" gradientUnits="userSpaceOnUse">
<stop stop-color="white" stop-opacity="0.1"/>
<stop offset="0.0904" stop-color="#F2FFFF" stop-opacity="0.1271"/>
<stop offset="0.259" stop-color="#CEFFFF" stop-opacity="0.1777"/>
<stop offset="0.4875" stop-color="#96FFFF" stop-opacity="0.2462"/>
<stop offset="0.7638" stop-color="#48FFFF" stop-opacity="0.3291"/>
<stop offset="1" stop-color="#00FFFF" stop-opacity="0.4"/>
</linearGradient>
<linearGradient id="paint7_linear" x1="79.4976" y1="22.2951" x2="79.4976" y2="16.2197" gradientUnits="userSpaceOnUse">
<stop stop-color="white" stop-opacity="0.1"/>
<stop offset="0.0904" stop-color="#F2FFFF" stop-opacity="0.1271"/>
<stop offset="0.259" stop-color="#CEFFFF" stop-opacity="0.1777"/>
<stop offset="0.4875" stop-color="#96FFFF" stop-opacity="0.2462"/>
<stop offset="0.7638" stop-color="#48FFFF" stop-opacity="0.3291"/>
<stop offset="1" stop-color="#00FFFF" stop-opacity="0.4"/>
</linearGradient>
<linearGradient id="paint8_linear" x1="57.8507" y1="22.3278" x2="57.8507" y2="15.7815" gradientUnits="userSpaceOnUse">
<stop stop-color="white" stop-opacity="0.1"/>
<stop offset="0.0904" stop-color="#F2FFFF" stop-opacity="0.1271"/>
<stop offset="0.259" stop-color="#CEFFFF" stop-opacity="0.1777"/>
<stop offset="0.4875" stop-color="#96FFFF" stop-opacity="0.2462"/>
<stop offset="0.7638" stop-color="#48FFFF" stop-opacity="0.3291"/>
<stop offset="1" stop-color="#00FFFF" stop-opacity="0.4"/>
</linearGradient>
<clipPath id="clip0">
<rect width="88.8" height="30" fill="white"/>
</clipPath>
</defs>
</svg>
